<?xml version="1.0" standalone="no"?>
<!DOCTYPE svg PUBLIC "-//W3C//DTD SVG 20010904//EN"
 "http://www.w3.org/TR/2001/REC-SVG-20010904/DTD/svg10.dtd">
<svg version="1.0" xmlns="http://www.w3.org/2000/svg"
 width="352.000000pt" height="352.000000pt" viewBox="0 0 352.000000 352.000000"
 preserveAspectRatio="xMidYMid meet">
<metadata>
Created by potrace 1.11, written by Peter Selinger 2001-2013
</metadata>
<g transform="translate(0.000000,352.000000) scale(0.100000,-0.100000)"
fill="#000000" stroke="none">
<path d="M1198 2113 l-4 -768 -23 -65 c-31 -87 -38 -99 -79 -137 -69 -64 -187
-80 -277 -38 -38 18 -47 26 -86 73 -27 32 -65 114 -79 169 l-13 51 -44 -19
c-25 -10 -51 -19 -59 -19 -8 0 -47 -13 -86 -30 -38 -16 -76 -30 -83 -30 -8 0
-25 -4 -39 -10 l-25 -9 15 -52 c9 -29 17 -60 19 -68 7 -34 73 -190 86 -201 3
-3 13 -22 23 -43 29 -63 153 -180 233 -221 39 -19 72 -33 75 -31 2 2 26 -2 53
-10 109 -33 301 -7 407 56 55 33 168 143 168 164 0 7 6 18 14 24 8 7 28 45 45
85 28 67 45 127 82 286 10 41 14 248 17 833 l4 777 -171 0 -170 0 -3 -767z"/>
<path d="M2281 2438 l0 -403 64 -52 c110 -92 104 -107 107 278 l3 332 200
-331 200 -332 62 0 c40 0 72 6 92 18 l31 17 0 438 0 437 -85 0 -85 0 -2 -331
-3 -332 -200 332 -200 331 -92 0 -93 0 1 -402z"/>
<path d="M2281 1993 c0 -23 53 -66 76 -61 12 2 3 13 -30 41 -38 31 -47 35 -46
20z"/>
<path d="M2280 1945 c0 -8 7 -15 16 -15 14 0 14 3 4 15 -7 8 -14 15 -16 15 -2
0 -4 -7 -4 -15z"/>
<path d="M2280 745 l0 -455 85 0 85 0 2 331 3 332 200 -331 200 -332 93 0 92
0 0 455 c-1 408 -2 455 -17 455 -13 0 -13 -3 -3 -15 7 -8 8 -15 2 -15 -5 0
-15 7 -22 15 -8 10 -31 15 -71 15 l-59 0 -2 -331 -3 -332 -200 332 -200 331
-92 0 -93 0 0 -455z"/>
</g>
</svg>
